<svg width="1015" height="375" viewBox="0 0 1015 375" fill="none" xmlns="http://www.w3.org/2000/svg">
<path d="M949.008 221.4C941.208 221.4 933.508 220.1 925.908 217.5C918.308 215.1 911.008 210.9 904.008 204.9L918.108 178.2C918.108 187.4 920.408 194.8 925.008 200.4C929.608 205.8 935.008 209.7 941.208 212.1C947.608 214.5 953.308 215.7 958.308 215.7C969.908 215.7 978.908 211.2 985.308 202.2C991.908 193.2 995.208 180.3 995.208 163.5C995.208 144.9 991.608 131 984.408 121.8C977.208 112.4 968.008 107.7 956.808 107.7C948.608 107.7 941.008 110.3 934.008 115.5C927.008 120.5 920.508 126.2 914.508 132.6L912.108 130.5C916.308 125.9 921.008 121.1 926.208 116.1C931.408 110.9 937.308 106.6 943.908 103.2C950.708 99.6 958.308 97.8 966.708 97.8C975.308 97.8 983.208 99.9 990.408 104.1C997.608 108.1 1003.51 114.2 1008.11 122.4C1012.71 130.6 1015.01 140.9 1015.01 153.3C1015.01 168.5 1011.71 181.2 1005.11 191.4C998.708 201.4 990.408 208.9 980.208 213.9C970.208 218.9 959.808 221.4 949.008 221.4ZM885.408 219C884.608 219.2 884.008 218.8 883.608 217.8C883.208 217 883.308 216.4 883.908 216C889.708 212 894.008 208.1 896.808 204.3C899.808 200.5 901.308 194.6 901.308 186.6V38.4C901.308 31.2 900.608 26 899.208 22.8C897.808 19.6 895.208 18 891.408 18C888.208 18 883.708 19.3 877.908 21.9C877.108 22.3 876.408 21.9 875.808 20.7C875.408 19.5 875.608 18.8 876.408 18.6L913.908 0.299995C914.508 0.099998 915.008 0 915.408 0C916.008 0 916.608 0.299998 917.208 0.89999C917.808 1.3 918.108 1.8 918.108 2.40001V203.7L885.408 219Z" fill="#412402"/>
<path d="M841.624 219.3C840.824 219.7 840.024 219.9 839.224 219.9C836.624 219.9 834.124 217.8 831.724 213.6C829.324 209.2 828.124 202.9 828.124 194.7V138C828.124 125.6 826.324 116.9 822.724 111.9C819.324 106.9 814.824 104.4 809.224 104.4C804.224 104.4 800.124 105.7 796.924 108.3C793.724 110.7 791.324 113.6 789.724 117C788.324 120.4 787.324 123.6 786.724 126.6C786.124 129.4 785.124 132.2 783.724 135C782.324 137.6 779.524 138.9 775.324 138.9C771.924 138.9 769.424 138 767.824 136.2C766.224 134.2 765.424 132.1 765.424 129.9C765.424 126.1 767.224 122.4 770.824 118.8C774.624 115.2 779.324 111.9 784.924 108.9C790.724 105.7 796.724 103.2 802.924 101.4C809.324 99.6 815.024 98.7 820.024 98.7C828.224 98.7 834.424 101.4 838.624 106.8C842.824 112 844.924 119.4 844.924 129V185.1C844.924 192.1 845.824 197.2 847.624 200.4C849.424 203.6 852.324 205.2 856.324 205.2C859.924 205.2 864.924 203.9 871.324 201.3C872.324 200.9 873.024 201.3 873.424 202.5C873.824 203.5 873.524 204.2 872.524 204.6L841.624 219.3ZM787.624 219.6C780.024 219.6 774.224 217.6 770.224 213.6C766.224 209.4 764.224 204.5 764.224 198.9C764.224 194.9 765.224 191.3 767.224 188.1C769.424 184.7 772.824 181.6 777.424 178.8C782.024 176 787.924 173.3 795.124 170.7L831.124 157.2L832.024 161.1L800.224 173.4C796.624 174.8 793.624 176.4 791.224 178.2C788.824 180 787.024 182 785.824 184.2C784.824 186.4 784.324 188.8 784.324 191.4C784.324 196 785.824 200 788.824 203.4C791.824 206.8 795.924 208.5 801.124 208.5C803.124 208.5 805.224 208.2 807.424 207.6C809.624 207 812.324 205.7 815.524 203.7L834.424 192.3L835.024 196.2L812.824 210.6C808.024 213.8 803.624 216.1 799.624 217.5C795.824 218.9 791.824 219.6 787.624 219.6Z" fill="#412402"/>
<path d="M642.963 54.6V192C642.963 197.4 643.563 201.5 644.763 204.3C645.963 207.1 648.263 209 651.663 210C655.263 210.8 660.363 211.2 666.963 211.2H699.663C711.263 211.2 720.463 207.6 727.263 200.4C734.063 193 738.463 183.4 740.463 171.6C740.463 171 740.963 170.8 741.963 171C743.163 171 743.763 171.3 743.763 171.9C743.163 177.3 742.563 183.9 741.963 191.7C741.363 199.3 741.063 206.4 741.063 213C741.063 216 739.563 217.5 736.563 217.5H597.963C597.563 217.5 597.363 216.9 597.363 215.7C597.363 214.5 597.563 213.9 597.963 213.9C605.163 213.9 610.563 213.4 614.163 212.4C617.963 211.4 620.463 209.4 621.663 206.4C622.863 203.4 623.463 199 623.463 193.2V54.3C623.463 48.5 622.863 44.2 621.663 41.4C620.463 38.4 617.963 36.4 614.163 35.4C610.563 34.2 605.163 33.6 597.963 33.6C597.563 33.6 597.363 33 597.363 31.8C597.363 30.6 597.563 30 597.963 30C602.763 30 608.163 30.2 614.163 30.6C620.163 30.8 626.463 30.9 633.063 30.9C640.063 30.9 646.563 30.8 652.563 30.6C658.563 30.2 663.863 30 668.463 30C669.063 30 669.363 30.6 669.363 31.8C669.363 33 669.063 33.6 668.463 33.6C661.263 33.6 655.763 34.2 651.963 35.4C648.363 36.4 645.963 38.4 644.763 41.4C643.563 44.4 642.963 48.8 642.963 54.6Z" fill="#412402"/>
<path d="M530.702 221.1C518.702 221.1 508.602 218.4 500.402 213C492.202 207.4 486.002 200.2 481.802 191.4C477.802 182.6 475.802 173.3 475.802 163.5C475.802 151.3 478.602 140.4 484.202 130.8C489.802 121 497.402 113.3 507.002 107.7C516.802 101.9 527.502 99 539.102 99C550.502 99 559.102 102 564.902 108C570.902 114 573.902 122.4 573.902 133.2C573.902 135.8 573.602 137.8 573.002 139.2C572.602 140.4 571.702 141 570.302 141H553.502C554.302 128.8 552.502 119.8 548.102 114C543.702 108 537.402 105 529.202 105C518.602 105 510.302 109.2 504.302 117.6C498.502 126 495.602 137.5 495.602 152.1C495.602 163.5 497.402 173.6 501.002 182.4C504.602 191.2 509.902 198.1 516.902 203.1C523.902 208.1 532.402 210.6 542.402 210.6C549.202 210.6 554.802 209.6 559.202 207.6C563.602 205.6 568.002 203.3 572.402 200.7C572.802 200.3 573.302 200.6 573.902 201.6C574.702 202.4 574.902 203.1 574.502 203.7C567.502 209.9 560.302 214.4 552.902 217.2C545.702 219.8 538.302 221.1 530.702 221.1ZM490.202 141.3L489.902 137.4L558.002 136.2V141L490.202 141.3Z" fill="#412402"/>
<path d="M356.02 213.9L428.02 107.7C428.82 106.3 428.32 105.6 426.52 105.6C411.92 105.6 400.12 106.3 391.12 107.7C382.12 108.9 375.12 111.4 370.12 115.2C365.32 119 361.72 124.7 359.32 132.3C359.12 132.9 358.42 133.1 357.22 132.9C356.22 132.5 355.82 132.1 356.02 131.7L366.22 93C366.42 92.6 367.12 92.5 368.32 92.7C369.52 92.7 369.92 92.9 369.52 93.3C368.72 96.7 369.42 99 371.62 100.2C374.02 101.2 378.12 101.7 383.92 101.7C391.12 101.7 399.92 101.7 410.32 101.7C420.92 101.7 433.32 101.7 447.52 101.7C448.32 101.7 449.02 102.1 449.62 102.9C450.22 103.7 450.32 104.5 449.92 105.3L379.12 210.9C378.32 212.3 378.82 213 380.62 213C394.42 213 405.42 212.7 413.62 212.1C422.02 211.5 428.52 210.3 433.12 208.5C437.72 206.5 441.22 203.5 443.62 199.5C446.22 195.5 448.62 190.1 450.82 183.3C451.02 182.9 451.62 182.7 452.62 182.7C453.62 182.7 454.12 182.9 454.12 183.3L453.52 214.2C453.52 215 453.22 215.8 452.62 216.6C452.22 217.2 451.62 217.5 450.82 217.5C441.42 217.5 431.42 217.5 420.82 217.5C410.22 217.5 399.62 217.5 389.02 217.5C378.42 217.5 368.12 217.5 358.12 217.5C357.32 217.5 356.62 217.1 356.02 216.3C355.62 215.5 355.62 214.7 356.02 213.9Z" fill="#412402"/>
<path d="M311.937 219.3C311.137 219.7 310.337 219.9 309.537 219.9C306.937 219.9 304.437 217.8 302.037 213.6C299.637 209.2 298.437 202.9 298.437 194.7V138C298.437 125.6 296.637 116.9 293.037 111.9C289.637 106.9 285.137 104.4 279.537 104.4C274.537 104.4 270.437 105.7 267.237 108.3C264.037 110.7 261.637 113.6 260.037 117C258.637 120.4 257.637 123.6 257.037 126.6C256.437 129.4 255.437 132.2 254.037 135C252.637 137.6 249.837 138.9 245.637 138.9C242.237 138.9 239.737 138 238.137 136.2C236.537 134.2 235.737 132.1 235.737 129.9C235.737 126.1 237.537 122.4 241.137 118.8C244.937 115.2 249.637 111.9 255.237 108.9C261.037 105.7 267.037 103.2 273.237 101.4C279.637 99.6 285.337 98.7 290.337 98.7C298.537 98.7 304.737 101.4 308.937 106.8C313.137 112 315.237 119.4 315.237 129V185.1C315.237 192.1 316.137 197.2 317.937 200.4C319.737 203.6 322.637 205.2 326.637 205.2C330.237 205.2 335.237 203.9 341.637 201.3C342.637 200.9 343.337 201.3 343.737 202.5C344.137 203.5 343.837 204.2 342.837 204.6L311.937 219.3ZM257.937 219.6C250.337 219.6 244.537 217.6 240.537 213.6C236.537 209.4 234.537 204.5 234.537 198.9C234.537 194.9 235.537 191.3 237.537 188.1C239.737 184.7 243.137 181.6 247.737 178.8C252.337 176 258.237 173.3 265.437 170.7L301.437 157.2L302.337 161.1L270.537 173.4C266.937 174.8 263.937 176.4 261.537 178.2C259.137 180 257.337 182 256.137 184.2C255.137 186.4 254.637 188.8 254.637 191.4C254.637 196 256.137 200 259.137 203.4C262.137 206.8 266.237 208.5 271.437 208.5C273.437 208.5 275.537 208.2 277.737 207.6C279.937 207 282.637 205.7 285.837 203.7L304.737 192.3L305.337 196.2L283.137 210.6C278.337 213.8 273.937 216.1 269.937 217.5C266.137 218.9 262.137 219.6 257.937 219.6Z" fill="#412402"/>
<path d="M161.4 54.9C161.4 49.1 160.8 44.7 159.6 41.7C158.4 38.7 155.9 36.6 152.1 35.4C148.5 34.2 142.8 33.6 135 33.6C134.4 33.6 134.1 33 134.1 31.8C134.1 30.6 134.4 30 135 30C139.8 30 145.2 30.2 151.2 30.6C157.2 30.8 163.9 30.9 171.3 30.9C177.9 30.9 184.3 30.8 190.5 30.6C196.7 30.2 202.1 30 206.7 30C207.3 30 207.6 30.6 207.6 31.8C207.6 33 207.3 33.6 206.7 33.6C199.3 33.6 193.7 34.2 189.9 35.4C186.1 36.4 183.6 38.4 182.4 41.4C181.2 44.2 180.6 48.5 180.6 54.3V193.2C180.6 199 181.2 203.4 182.4 206.4C183.6 209.4 186.1 211.4 189.9 212.4C193.7 213.4 199.3 213.9 206.7 213.9C207.3 213.9 207.6 214.5 207.6 215.7C207.6 216.9 207.3 217.5 206.7 217.5C202.1 217.5 196.7 217.4 190.5 217.2C184.3 217 177.9 216.9 171.3 216.9C163.9 216.9 157.2 217 151.2 217.2C145.2 217.4 139.8 217.5 135 217.5C134.4 217.5 134.1 216.9 134.1 215.7C134.1 214.5 134.4 213.9 135 213.9C142.8 213.9 148.5 213.4 152.1 212.4C155.9 211.4 158.4 209.4 159.6 206.4C160.8 203.4 161.4 199 161.4 193.2V54.9ZM35.7 123V116.7H169.8V123H35.7ZM27 193.2V54.3C27 48.5 26.3 44.2 24.9 41.4C23.7 38.4 21.2 36.4 17.4 35.4C13.8 34.2 8.3 33.6 0.900001 33.6C0.500001 33.6 0.300001 33 0.300001 31.8C0.300001 30.6 0.500001 30 0.900001 30C5.7 30 11.1 30.2 17.1 30.6C23.3 30.8 29.7 30.9 36.3 30.9C43.7 30.9 50.4 30.8 56.4 30.6C62.4 30.2 67.8 30 72.6 30C73 30 73.2 30.6 73.2 31.8C73.2 33 73 33.6 72.6 33.6C65.2 33.6 59.6 34.2 55.8 35.4C52 36.6 49.4 38.7 48 41.7C46.8 44.7 46.2 49.1 46.2 54.9V193.2C46.2 199 46.8 203.4 48 206.4C49.2 209.4 51.7 211.4 55.5 212.4C59.5 213.4 65.2 213.9 72.6 213.9C73 213.9 73.2 214.5 73.2 215.7C73.2 216.9 73 217.5 72.6 217.5C67.6 217.5 62.1 217.4 56.1 217.2C50.3 217 43.7 216.9 36.3 216.9C29.7 216.9 23.3 217 17.1 217.2C10.9 217.4 5.4 217.5 0.6 217.5C0.2 217.5 0 216.9 0 215.7C0 214.5 0.2 213.9 0.6 213.9C8 213.9 13.6 213.4 17.4 212.4C21.2 211.4 23.7 209.4 24.9 206.4C26.3 203.4 27 199 27 193.2Z" fill="#412402"/>
<path d="M600.864 342C600.864 337.56 601.704 333.39 603.384 329.49C605.064 325.53 607.374 322.08 610.314 319.14C613.254 316.14 616.674 313.8 620.574 312.12C624.474 310.44 628.644 309.6 633.084 309.6C637.524 309.6 641.694 310.44 645.594 312.12C649.494 313.8 652.914 316.14 655.854 319.14C658.854 322.08 661.194 325.53 662.874 329.49C664.614 333.39 665.484 337.56 665.484 342C665.484 346.44 664.614 350.61 662.874 354.51C661.194 358.41 658.854 361.83 655.854 364.77C652.914 367.71 649.494 370.02 645.594 371.7C641.694 373.38 637.524 374.22 633.084 374.22C628.644 374.22 624.474 373.44 620.574 371.88C616.674 370.26 613.254 368.01 610.314 365.13C607.374 362.25 605.064 358.86 603.384 354.96C601.704 351 600.864 346.68 600.864 342ZM602.664 342.09C602.664 346.29 603.444 350.25 605.004 353.97C606.564 357.63 608.724 360.87 611.484 363.69C614.244 366.45 617.454 368.61 621.114 370.17C624.774 371.73 628.674 372.51 632.814 372.51C637.074 372.51 641.064 371.73 644.784 370.17C648.504 368.61 651.774 366.45 654.594 363.69C657.414 360.87 659.634 357.63 661.254 353.97C662.874 350.25 663.684 346.26 663.684 342C663.684 337.8 662.874 333.87 661.254 330.21C659.634 326.49 657.414 323.22 654.594 320.4C651.834 317.58 648.594 315.36 644.874 313.74C641.214 312.12 637.284 311.31 633.084 311.31C628.764 311.31 624.744 312.15 621.024 313.83C617.364 315.45 614.154 317.7 611.394 320.58C608.634 323.46 606.474 326.76 604.914 330.48C603.414 334.14 602.664 338.01 602.664 342.09Z" fill="#412402"/>
<path d="M581.71 310.32H583.51V373.5H581.71V310.32Z" fill="#412402"/>
<path d="M516.408 373.5V310.32H530.898C536.898 310.32 542.028 311.28 546.288 313.2C550.548 315.12 553.998 317.67 556.638 320.85C559.338 323.97 561.288 327.39 562.488 331.11C563.748 334.77 564.378 338.4 564.378 342C564.378 346.8 563.538 351.15 561.858 355.05C560.238 358.89 557.988 362.19 555.108 364.95C552.288 367.71 549.048 369.84 545.388 371.34C541.728 372.78 537.888 373.5 533.868 373.5H516.408ZM518.208 371.79H533.058C537.078 371.79 540.858 371.1 544.398 369.72C547.998 368.34 551.148 366.36 553.848 363.78C556.548 361.14 558.678 357.99 560.238 354.33C561.798 350.67 562.578 346.53 562.578 341.91C562.578 338.49 561.978 335.04 560.778 331.56C559.638 328.02 557.778 324.78 555.198 321.84C552.678 318.9 549.378 316.56 545.298 314.82C541.218 313.02 536.298 312.12 530.538 312.12H518.208V371.79Z" fill="#412402"/>
<path d="M455.715 352.8C455.715 357 456.525 360.57 458.145 363.51C459.765 366.45 461.985 368.7 464.805 370.26C467.625 371.76 470.835 372.51 474.435 372.51C478.035 372.51 481.245 371.76 484.065 370.26C486.945 368.7 489.195 366.45 490.815 363.51C492.435 360.57 493.245 357 493.245 352.8V310.32H495.045V352.98C495.045 357.6 494.115 361.5 492.255 364.68C490.455 367.8 487.995 370.17 484.875 371.79C481.815 373.41 478.335 374.22 474.435 374.22C470.535 374.22 467.025 373.41 463.905 371.79C460.845 370.17 458.415 367.8 456.615 364.68C454.815 361.5 453.915 357.6 453.915 352.98V310.32H455.715V352.8Z" fill="#412402"/>
<path d="M396.838 310.32H437.878V312.03H418.258V373.5H416.458V312.03H396.838V310.32Z" fill="#412402"/>
<path d="M383.33 314.82C381.65 314.1 379.46 313.38 376.76 312.66C374.06 311.88 371.3 311.49 368.48 311.49C363.86 311.49 360.14 312.69 357.32 315.09C354.56 317.43 353.18 320.34 353.18 323.82C353.18 326.46 353.93 328.65 355.43 330.39C356.99 332.07 358.97 333.51 361.37 334.71C363.83 335.85 366.47 336.96 369.29 338.04C371.45 338.82 373.58 339.69 375.68 340.65C377.78 341.61 379.7 342.78 381.44 344.16C383.18 345.48 384.56 347.16 385.58 349.2C386.6 351.18 387.11 353.61 387.11 356.49C387.11 360.15 386.27 363.3 384.59 365.94C382.91 368.58 380.63 370.62 377.75 372.06C374.87 373.5 371.63 374.22 368.03 374.22C364.61 374.22 361.58 373.8 358.94 372.96C356.3 372.06 354.11 371.1 352.37 370.08C350.63 369.06 349.37 368.31 348.59 367.83L349.49 366.21C350.75 367.11 352.34 368.07 354.26 369.09C356.18 370.05 358.28 370.89 360.56 371.61C362.9 372.27 365.27 372.6 367.67 372.6C370.61 372.6 373.43 372.03 376.13 370.89C378.83 369.69 381.02 367.92 382.7 365.58C384.44 363.18 385.31 360.18 385.31 356.58C385.31 353.04 384.47 350.22 382.79 348.12C381.11 345.96 378.95 344.25 376.31 342.99C373.73 341.67 371 340.47 368.12 339.39C366.02 338.67 363.98 337.89 362 337.05C360.02 336.15 358.22 335.13 356.6 333.99C355.04 332.85 353.78 331.47 352.82 329.85C351.86 328.23 351.38 326.31 351.38 324.09C351.38 321.27 352.13 318.81 353.63 316.71C355.13 314.61 357.14 312.96 359.66 311.76C362.24 310.56 365.12 309.96 368.3 309.96C370.58 309.96 373.22 310.29 376.22 310.95C379.28 311.61 381.89 312.45 384.05 313.47L383.33 314.82Z" fill="#412402"/>
</svg>
