<svg width="385" height="385" viewBox="0 0 385 385" fill="none" xmlns="http://www.w3.org/2000/svg">
<g clip-path="url(#clip0_7_2)">
<path d="M312.812 0H72.1875C32.3194 0 0 32.3194 0 72.1875V312.812C0 352.681 32.3194 385 72.1875 385H312.812C352.681 385 385 352.681 385 312.812V72.1875C385 32.3194 352.681 0 312.812 0Z" fill="#412402"/>
<path d="M252.572 144.746V239.632C252.572 243.361 252.986 246.193 253.815 248.126C254.643 250.06 256.232 251.372 258.58 252.063C261.066 252.615 264.588 252.892 269.146 252.892H291.728C299.738 252.892 306.092 250.405 310.788 245.433C315.484 240.323 318.522 233.693 319.904 225.544C319.904 225.13 320.249 224.992 320.939 225.13C321.768 225.13 322.182 225.337 322.182 225.752C321.768 229.481 321.354 234.039 320.939 239.425C320.525 244.674 320.318 249.577 320.318 254.135C320.318 256.206 319.282 257.242 317.21 257.242H221.495C221.219 257.242 221.081 256.828 221.081 255.999C221.081 255.17 221.219 254.756 221.495 254.756C226.468 254.756 230.197 254.411 232.683 253.72C235.307 253.03 237.034 251.648 237.862 249.577C238.691 247.505 239.105 244.466 239.105 240.461V144.539C239.105 140.534 238.691 137.564 237.862 135.631C237.034 133.559 235.307 132.178 232.683 131.487C230.197 130.658 226.468 130.244 221.495 130.244C221.219 130.244 221.081 129.83 221.081 129.001C221.081 128.172 221.219 127.758 221.495 127.758C224.81 127.758 228.539 127.896 232.683 128.172C236.826 128.31 241.177 128.379 245.735 128.379C250.569 128.379 255.058 128.31 259.201 128.172C263.345 127.896 267.005 127.758 270.182 127.758C270.596 127.758 270.803 128.172 270.803 129.001C270.803 129.83 270.596 130.244 270.182 130.244C265.209 130.244 261.411 130.658 258.787 131.487C256.301 132.178 254.643 133.559 253.815 135.631C252.986 137.702 252.572 140.741 252.572 144.746Z" fill="#FAC775"/>
<path d="M175.339 144.953C175.339 140.948 174.925 137.909 174.096 135.838C173.267 133.766 171.541 132.316 168.917 131.487C166.431 130.658 162.494 130.244 157.108 130.244C156.693 130.244 156.486 129.83 156.486 129.001C156.486 128.172 156.693 127.758 157.108 127.758C160.423 127.758 164.152 127.896 168.295 128.172C172.439 128.31 177.066 128.379 182.176 128.379C186.734 128.379 191.153 128.31 195.435 128.172C199.717 127.896 203.446 127.758 206.623 127.758C207.037 127.758 207.244 128.172 207.244 129.001C207.244 129.83 207.037 130.244 206.623 130.244C201.512 130.244 197.645 130.658 195.021 131.487C192.397 132.178 190.67 133.559 189.841 135.631C189.013 137.564 188.598 140.534 188.598 144.539V240.461C188.598 244.466 189.013 247.505 189.841 249.577C190.67 251.648 192.397 253.03 195.021 253.72C197.645 254.411 201.512 254.756 206.623 254.756C207.037 254.756 207.244 255.17 207.244 255.999C207.244 256.828 207.037 257.242 206.623 257.242C203.446 257.242 199.717 257.173 195.435 257.035C191.153 256.897 186.734 256.828 182.176 256.828C177.066 256.828 172.439 256.897 168.295 257.035C164.152 257.173 160.423 257.242 157.108 257.242C156.693 257.242 156.486 256.828 156.486 255.999C156.486 255.17 156.693 254.756 157.108 254.756C162.494 254.756 166.431 254.411 168.917 253.72C171.541 253.03 173.267 251.648 174.096 249.577C174.925 247.505 175.339 244.466 175.339 240.461V144.953ZM88.5328 191.982V187.631H181.14V191.982H88.5328ZM82.5248 240.461V144.539C82.5248 140.534 82.0414 137.564 81.0746 135.631C80.2459 133.559 78.5194 132.178 75.8952 131.487C73.4091 130.658 69.6109 130.244 64.5006 130.244C64.2243 130.244 64.0862 129.83 64.0862 129.001C64.0862 128.172 64.2243 127.758 64.5006 127.758C67.8154 127.758 71.5445 127.896 75.688 128.172C79.9696 128.31 84.3894 128.379 88.9472 128.379C94.0575 128.379 98.6844 128.31 102.828 128.172C106.971 127.896 110.701 127.758 114.015 127.758C114.292 127.758 114.43 128.172 114.43 129.001C114.43 129.83 114.292 130.244 114.015 130.244C108.905 130.244 105.038 130.658 102.414 131.487C99.7894 132.316 97.9938 133.766 97.027 135.838C96.1983 137.909 95.784 140.948 95.784 144.953V240.461C95.784 244.466 96.1983 247.505 97.027 249.577C97.8557 251.648 99.5822 253.03 102.206 253.72C104.969 254.411 108.905 254.756 114.015 254.756C114.292 254.756 114.43 255.17 114.43 255.999C114.43 256.828 114.292 257.242 114.015 257.242C110.562 257.242 106.764 257.173 102.621 257.035C98.6154 256.897 94.0575 256.828 88.9472 256.828C84.3894 256.828 79.9696 256.897 75.688 257.035C71.4064 257.173 67.6082 257.242 64.2934 257.242C64.0172 257.242 63.879 256.828 63.879 255.999C63.879 255.17 64.0172 254.756 64.2934 254.756C69.4037 254.756 73.271 254.411 75.8952 253.72C78.5194 253.03 80.2459 251.648 81.0746 249.577C82.0414 247.505 82.5248 244.466 82.5248 240.461Z" fill="#FAC775"/>
</g>
<defs>
<clipPath id="clip0_7_2">
<rect width="385" height="385" fill="white"/>
</clipPath>
</defs>
</svg>
